<svg width="298" height="298" viewBox="0 0 298 298" fill="none" xmlns="http://www.w3.org/2000/svg">
<rect width="298" height="298" rx="41" fill="#AFEB2B"/>
<path d="M222.24 99.7589L198.241 75.7597C197.684 75.2018 197.022 74.7593 196.294 74.4573C195.565 74.1554 194.785 74 193.996 74C193.208 74 192.427 74.1554 191.699 74.4573C190.97 74.7593 190.309 75.2018 189.751 75.7597L117.754 147.757C117.197 148.315 116.755 148.977 116.454 149.705C116.153 150.434 115.998 151.214 115.999 152.002V176.002C115.999 177.593 116.631 179.119 117.756 180.244C118.881 181.369 120.407 182.001 121.998 182.001H145.998C146.786 182.002 147.566 181.847 148.295 181.546C149.023 181.245 149.685 180.803 150.243 180.246L222.24 108.249C222.798 107.691 223.241 107.03 223.543 106.301C223.845 105.573 224 104.792 224 104.004C224 103.215 223.845 102.435 223.543 101.706C223.241 100.978 222.798 100.316 222.24 99.7589ZM143.515 170.002H127.998V154.485L175.997 106.486L191.514 122.003L143.515 170.002ZM199.996 113.521L184.479 98.004L193.996 88.4868L209.513 104.004L199.996 113.521ZM217.995 152.002V212C217.995 215.183 216.731 218.235 214.481 220.485C212.23 222.736 209.178 224 205.996 224H85.9996C82.8171 224 79.765 222.736 77.5146 220.485C75.2642 218.235 74 215.183 74 212V92.0042C74 88.8217 75.2642 85.7695 77.5146 83.5191C79.765 81.2688 82.8171 80.0045 85.9996 80.0045H145.998C147.589 80.0045 149.115 80.6367 150.24 81.7618C151.365 82.887 151.998 84.4131 151.998 86.0043C151.998 87.5956 151.365 89.1217 150.24 90.2468C149.115 91.372 147.589 92.0042 145.998 92.0042H85.9996V212H205.996V152.002C205.996 150.411 206.628 148.885 207.753 147.76C208.878 146.635 210.404 146.002 211.996 146.002C213.587 146.002 215.113 146.635 216.238 147.76C217.363 148.885 217.995 150.411 217.995 152.002Z" fill="#436004"/>
</svg>
