<svg width="298" height="298" viewBox="0 0 298 298" fill="none" xmlns="http://www.w3.org/2000/svg">
<rect width="298" height="298" rx="41" fill="#AFEB2B"/>
<path d="M219.268 205.827L172.993 128.69V86H178.994C180.585 86 182.112 85.3679 183.237 84.2426C184.363 83.1174 184.995 81.5913 184.995 80C184.995 78.4087 184.363 76.8826 183.237 75.7574C182.112 74.6321 180.585 74 178.994 74H118.984C117.392 74 115.866 74.6321 114.74 75.7574C113.615 76.8826 112.983 78.4087 112.983 80C112.983 81.5913 113.615 83.1174 114.74 84.2426C115.866 85.3679 117.392 86 118.984 86H124.985V128.69L78.7095 205.827C77.6181 207.647 77.0286 209.723 77.001 211.844C76.9734 213.965 77.5088 216.056 78.5525 217.903C79.5963 219.75 81.1111 221.287 82.9426 222.358C84.7742 223.429 86.8569 223.996 88.9787 224H208.999C211.122 224 213.208 223.436 215.043 222.367C216.877 221.297 218.396 219.76 219.442 217.913C220.488 216.065 221.026 213.973 220.999 211.85C220.972 209.727 220.383 207.648 219.29 205.827H219.268ZM136.132 133.438C136.693 132.507 136.989 131.441 136.987 130.355V86H160.991V130.355C160.989 131.441 161.285 132.507 161.846 133.438L190.516 181.25C181.514 183.027 168.71 182.277 151.697 173.667C139.762 167.63 128.405 164.427 117.776 164.06L136.132 133.438ZM88.9787 212L110.387 176.315C121.077 175.01 133.124 177.702 146.258 184.355C160.511 191.562 172.513 194.015 182.264 194.015C187.224 194.037 192.161 193.355 196.929 191.99L208.999 212H88.9787Z" fill="#436004"/>
</svg>
