<svg width="298" height="298" viewBox="0 0 298 298" fill="none" xmlns="http://www.w3.org/2000/svg">
<rect width="298" height="298" rx="41" fill="#AFEB2B"/>
<path d="M202.209 148.999C221.466 121.96 231.285 94.0146 217.63 80.3583C203.975 66.7019 176.031 76.5223 148.994 95.7803C121.957 76.5223 94.0132 66.7019 80.3578 80.3583C66.7024 94.0146 76.5221 121.96 95.7787 148.999C76.5221 176.039 66.7024 203.984 80.3578 217.641C84.7559 222.039 90.6306 224 97.4739 224C111.91 224 130.659 215.273 149.033 202.219C167.329 215.273 186.077 224 200.553 224C207.396 224 213.279 222.031 217.669 217.641C231.285 203.984 221.466 176.039 202.209 148.999ZM208.795 89.1943C214.763 95.1631 210.732 114.507 194.327 138.632C189.137 132.207 183.611 126.06 177.773 120.218C171.931 114.387 165.785 108.869 159.36 103.687C183.484 87.2802 202.826 83.2177 208.795 89.1943ZM186.718 148.999C181.19 155.993 175.253 162.653 168.938 168.945C162.647 175.26 155.987 181.198 148.994 186.726C142.001 181.198 135.341 175.26 129.05 168.945C122.735 162.653 116.798 155.993 111.27 148.999C122.361 135.022 135.018 122.364 148.994 111.273C155.987 116.801 162.647 122.738 168.938 129.054C175.253 135.346 181.19 142.006 186.718 148.999ZM89.1932 89.1943C90.9118 87.4677 93.7475 86.5771 97.4895 86.5771C106.723 86.5771 121.464 91.9677 138.62 103.687C132.202 108.874 126.058 114.391 120.215 120.218C114.384 126.061 108.867 132.208 103.684 138.632C87.2792 114.507 83.2248 95.1631 89.1932 89.1943ZM89.1932 208.805C83.2248 202.836 87.2792 183.492 103.684 159.367C108.874 165.792 114.4 171.938 120.238 177.781C126.077 183.607 132.215 189.125 138.627 194.312C114.504 210.719 95.1615 214.781 89.1932 208.805ZM208.795 208.805C202.826 214.781 183.484 210.742 159.36 194.336C165.782 189.141 171.927 183.615 177.773 177.781C183.603 171.938 189.121 165.791 194.303 159.367C210.709 183.492 214.763 202.836 208.795 208.805ZM158.368 148.999C158.368 150.854 157.818 152.666 156.788 154.208C155.758 155.75 154.294 156.951 152.581 157.661C150.868 158.37 148.984 158.556 147.165 158.194C145.347 157.833 143.676 156.94 142.365 155.629C141.054 154.317 140.161 152.647 139.8 150.828C139.438 149.01 139.624 147.125 140.333 145.412C141.043 143.699 142.244 142.234 143.786 141.204C145.327 140.174 147.14 139.624 148.994 139.624C151.48 139.624 153.865 140.612 155.623 142.37C157.381 144.128 158.368 146.513 158.368 148.999Z" fill="#436004"/>
</svg>
