<svg width="298" height="298" viewBox="0 0 298 298" fill="none" xmlns="http://www.w3.org/2000/svg">
<path d="M198 74H100C93.373 74 88 79.373 88 86V212C88 218.627 93.373 224 100 224H198C204.627 224 210 218.627 210 212V86C210 79.373 204.627 74 198 74ZM198 212H100V86H198V212ZM120 113H178C179.591 113 181.117 112.368 182.243 111.243C183.368 110.117 184 108.591 184 107C184 105.409 183.368 103.883 182.243 102.757C181.117 101.632 179.591 101 178 101H120C118.409 101 116.883 101.632 115.757 102.757C114.632 103.883 114 105.409 114 107C114 108.591 114.632 110.117 115.757 111.243C116.883 112.368 118.409 113 120 113ZM178 125H120C118.409 125 116.883 125.632 115.757 126.757C114.632 127.883 114 129.409 114 131C114 132.591 114.632 134.117 115.757 135.243C116.883 136.368 118.409 137 120 137H178C179.591 137 181.117 136.368 182.243 135.243C183.368 134.117 184 132.591 184 131C184 129.409 183.368 127.883 182.243 126.757C181.117 125.632 179.591 125 178 125ZM178 149H120C118.409 149 116.883 149.632 115.757 150.757C114.632 151.883 114 153.409 114 155C114 156.591 114.632 158.117 115.757 159.243C116.883 160.368 118.409 161 120 161H178C179.591 161 181.117 160.368 182.243 159.243C183.368 158.117 184 156.591 184 155C184 153.409 183.368 151.883 182.243 150.757C181.117 149.632 179.591 149 178 149ZM154 173H120C118.409 173 116.883 173.632 115.757 174.757C114.632 175.883 114 177.409 114 179C114 180.591 114.632 182.117 115.757 183.243C116.883 184.368 118.409 185 120 185H154C155.591 185 157.117 184.368 158.243 183.243C159.368 182.117 160 180.591 160 179C160 177.409 159.368 175.883 158.243 174.757C157.117 173.632 155.591 173 154 173Z" fill="black"/>
</svg>
